<svg width="56" height="49" viewBox="0 0 56 49" fill="none" xmlns="http://www.w3.org/2000/svg">
<path d="M19.8086 7.41699H39.5253L37.4669 15.867L19.8086 17.3837V7.41699Z" fill="url(#paint0_linear_111_15636)"/>
<path d="M21.25 21.0667C20.3177 21.0667 19.5625 20.291 19.5625 19.3333L38.2475 17.6644C38.6789 17.6259 39.0381 17.3118 39.1415 16.8799C39.712 14.4953 41.5 6.97067 41.5 6.33333C41.5 5.85493 41.122 5.46667 40.6562 5.46667H19.5625V3.56C19.5625 2.86667 19.5625 3.34507 19.5625 2.86667C19.5625 2.38827 19.1845 2 18.7187 2L15.3438 2C14.878 2 14.5 2.38827 14.5 2.86667C14.5 3.34507 14.878 3.73333 15.3438 3.73333H17.875V19.3333C17.875 21.2478 19.3862 22.8 21.25 22.8L36.505 22.8C36.505 22.8 35.865 21.981 36.3586 22.54L36.505 22.8L34.75 21.24L21.25 21.0667ZM19.5625 7.2H39.8125L37.6551 16.0642L19.5625 17.6V7.2Z" fill="black"/>
<path d="M38.0406 24.62C38.0406 26.4867 36.5674 28 34.75 28C32.9326 28 31.4594 26.4867 31.4594 24.62C31.4594 22.7533 32.9326 21.24 34.75 21.24C36.5674 21.24 38.0406 22.7533 38.0406 24.62ZM33.1414 24.62C33.1414 25.5325 33.8616 26.2723 34.75 26.2723C35.6384 26.2723 36.3586 25.5325 36.3586 24.62C36.3586 23.7075 35.6384 22.9677 34.75 22.9677C33.8616 22.9677 33.1414 23.7075 33.1414 24.62Z" fill="black"/>
<path d="M26.1438 24.62C26.1438 26.4867 24.6705 28 22.8531 28C21.0358 28 19.5625 26.4867 19.5625 24.62C19.5625 22.7533 21.0358 21.24 22.8531 21.24C24.6705 21.24 26.1438 22.7533 26.1438 24.62ZM21.2445 24.62C21.2445 25.5325 21.9647 26.2723 22.8531 26.2723C23.7415 26.2723 24.4617 25.5325 24.4617 24.62C24.4617 23.7075 23.7415 22.9677 22.8531 22.9677C21.9647 22.9677 21.2445 23.7075 21.2445 24.62Z" fill="black"/>
<path d="M3.73926 41.5293H2.5293V46H1.2168V36.0469H2.5293V40.4355H3.55469L7.03418 36.0469H8.66797L4.86719 40.873L8.94824 46H7.3418L3.73926 41.5293ZM9.42676 42.2334C9.42676 41.5088 9.56803 40.8571 9.85059 40.2783C10.1377 39.6995 10.5342 39.2529 11.04 38.9385C11.5505 38.624 12.1315 38.4668 12.7832 38.4668C13.7904 38.4668 14.6038 38.8154 15.2236 39.5127C15.848 40.21 16.1602 41.1374 16.1602 42.2949V42.3838C16.1602 43.1038 16.0212 43.751 15.7432 44.3252C15.4697 44.8949 15.0755 45.3392 14.5605 45.6582C14.0501 45.9772 13.4622 46.1367 12.7969 46.1367C11.7943 46.1367 10.9808 45.7881 10.3564 45.0908C9.73665 44.3936 9.42676 43.4707 9.42676 42.3223V42.2334ZM10.6982 42.3838C10.6982 43.2041 10.8874 43.8626 11.2656 44.3594C11.6484 44.8561 12.1589 45.1045 12.7969 45.1045C13.4395 45.1045 13.9499 44.8538 14.3281 44.3525C14.7064 43.8467 14.8955 43.1403 14.8955 42.2334C14.8955 41.4222 14.7018 40.766 14.3145 40.2646C13.9316 39.7588 13.4212 39.5059 12.7832 39.5059C12.1589 39.5059 11.6553 39.7542 11.2725 40.251C10.8896 40.7477 10.6982 41.4587 10.6982 42.3838ZM23.9941 42.3838C23.9941 43.5094 23.7367 44.4163 23.2217 45.1045C22.7067 45.7926 22.0094 46.1367 21.1299 46.1367C20.2321 46.1367 19.5257 45.8519 19.0107 45.2822V48.8438H17.7461V38.6035H18.9014L18.9629 39.4238C19.4779 38.7858 20.1934 38.4668 21.1094 38.4668C21.998 38.4668 22.6999 38.8018 23.2148 39.4717C23.7344 40.1416 23.9941 41.0736 23.9941 42.2676V42.3838ZM22.7295 42.2402C22.7295 41.4062 22.5518 40.7477 22.1963 40.2646C21.8408 39.7816 21.3532 39.54 20.7334 39.54C19.9678 39.54 19.3936 39.8796 19.0107 40.5586V44.0928C19.389 44.7673 19.9678 45.1045 20.7471 45.1045C21.3532 45.1045 21.834 44.8652 22.1895 44.3867C22.5495 43.9036 22.7295 43.1882 22.7295 42.2402ZM29.6748 40.627C29.6748 40.2806 29.5426 40.0072 29.2783 39.8066C29.014 39.6016 28.6517 39.499 28.1914 39.499C27.7448 39.499 27.3711 39.6152 27.0703 39.8477C26.7741 40.0801 26.626 40.3535 26.626 40.668H25.3682C25.3682 40.0254 25.637 39.499 26.1748 39.0889C26.7126 38.6787 27.3848 38.4736 28.1914 38.4736C29.0573 38.4736 29.7318 38.6605 30.2148 39.0342C30.6979 39.4033 30.9395 39.932 30.9395 40.6201C30.9395 40.9528 30.8392 41.2581 30.6387 41.5361C30.4382 41.8141 30.1533 42.0352 29.7842 42.1992C30.6455 42.4909 31.0762 43.0651 31.0762 43.9219C31.0762 44.6009 30.8141 45.1387 30.29 45.5352C29.766 45.9316 29.0664 46.1299 28.1914 46.1299C27.3392 46.1299 26.6351 45.9225 26.0791 45.5078C25.5277 45.0885 25.252 44.5234 25.252 43.8125H26.5098C26.5098 44.1725 26.6693 44.4824 26.9883 44.7422C27.3118 44.9974 27.7129 45.125 28.1914 45.125C28.6745 45.125 29.0641 45.0133 29.3604 44.79C29.6566 44.5667 29.8047 44.2773 29.8047 43.9219C29.8047 43.5072 29.6794 43.2109 29.4287 43.0332C29.1826 42.8509 28.7975 42.7598 28.2734 42.7598H27.0088V41.6934H28.3828C29.2441 41.6706 29.6748 41.3151 29.6748 40.627ZM37.502 38.6035H38.7666V46H37.502V40.6064L34.0908 46H32.8262V38.6035H34.0908V44.0039L37.502 38.6035ZM46.8398 46H45.5752V42.8418H42.1777V46H40.9062V38.6035H42.1777V41.8096H45.5752V38.6035H46.8398V46ZM53.4434 46C53.3704 45.8542 53.3112 45.5944 53.2656 45.2207C52.6777 45.8314 51.9759 46.1367 51.1602 46.1367C50.431 46.1367 49.8317 45.9316 49.3623 45.5215C48.8975 45.1068 48.665 44.5827 48.665 43.9492C48.665 43.179 48.9567 42.582 49.54 42.1582C50.1279 41.7298 50.9528 41.5156 52.0146 41.5156H53.2451V40.9346C53.2451 40.4925 53.113 40.1416 52.8486 39.8818C52.5843 39.6175 52.1947 39.4854 51.6797 39.4854C51.2285 39.4854 50.8503 39.5993 50.5449 39.8271C50.2396 40.055 50.0869 40.3307 50.0869 40.6543H48.8154C48.8154 40.2852 48.9453 39.9297 49.2051 39.5879C49.4694 39.2415 49.8249 38.9681 50.2715 38.7676C50.7227 38.5671 51.2171 38.4668 51.7549 38.4668C52.6071 38.4668 53.2747 38.681 53.7578 39.1094C54.2409 39.5332 54.4915 40.1188 54.5098 40.8662V44.2705C54.5098 44.9495 54.5964 45.4896 54.7695 45.8906V46H53.4434ZM51.3447 45.0361C51.7412 45.0361 52.1172 44.9336 52.4727 44.7285C52.8281 44.5234 53.0856 44.2568 53.2451 43.9287V42.4111H52.2539C50.7044 42.4111 49.9297 42.8646 49.9297 43.7715C49.9297 44.168 50.0618 44.4779 50.3262 44.7012C50.5905 44.9245 50.93 45.0361 51.3447 45.0361Z" fill="black"/>
<circle cx="41" cy="6" r="6" fill="#FF4343"/>
<path d="M41.6216 8H40.7944V4.00439L39.5742 4.42139V3.7207L41.5156 3.00635H41.6216V8Z" fill="white"/>
<defs>
<linearGradient id="paint0_linear_111_15636" x1="8.8412" y1="0.495693" x2="41.9252" y2="8.27193" gradientUnits="userSpaceOnUse">
<stop stop-color="#F64D4D"/>
<stop offset="1" stop-color="#4D5EF6"/>
</linearGradient>
</defs>
</svg>
