<svg width="72" height="49" viewBox="0 0 72 49" fill="none" xmlns="http://www.w3.org/2000/svg">
<g clip-path="url(#clip0_111_15629)">
<path d="M29.622 4.3022C32.0595 4.57301 34.0906 6.33343 35.9864 8.63554C37.8822 6.33343 40.0623 4.3022 42.7706 4.3022C46.2914 4.3022 47.8971 7.49676 47.4968 10.2129C47.0906 12.9689 46.0204 13.3751 41.2678 19.1981L36.6636 24.6147C35.7657 25.5713 36.2074 25.5713 35.3095 24.6147L33.6845 22.5835L32.3302 20.9584L30.8407 19.1981C25.8433 13.3751 24.6848 11.8855 24.4891 10.2129C24.0828 6.73972 26.3851 3.94257 29.622 4.3022Z" fill="url(#paint0_linear_111_15629)"/>
<path d="M42.7708 2.2583C39.9499 2.2583 37.8153 3.91379 35.9999 5.64372C34.27 3.80798 32.05 2.2583 29.2291 2.2583C25.2563 2.2583 22.4583 5.67416 22.4583 9.39901C22.4583 11.3972 23.2767 12.8369 24.173 14.1885L34.6957 26.8043C35.8772 28.0543 36.0998 28.0543 37.2813 26.8043L47.8277 14.1885C48.8814 12.8369 49.5416 11.3972 49.5416 9.39901C49.5416 5.67421 46.7435 2.2583 42.7708 2.2583ZM46.1562 13.8382L35.9999 25.9562L25.8437 13.7882C24.6292 12.0997 24.151 10.9605 24.151 9.39901C24.151 6.48923 26.2288 3.86976 29.2291 3.8452C31.6971 3.82489 34.4943 6.34532 35.9999 8.2454C37.4658 6.41134 40.3028 3.8452 42.7708 3.8452C45.6915 3.8452 47.8489 6.48923 47.8489 9.39901C47.8489 10.9605 47.4706 12.1843 46.1562 13.8382Z" fill="black"/>
</g>
<path d="M7.43066 36.0469H8.74316V46H7.43066V38.3301L2.5293 46H1.20996V36.0469H2.5293V43.7168L7.43066 36.0469ZM15.0049 40.627C15.0049 40.2806 14.8727 40.0072 14.6084 39.8066C14.3441 39.6016 13.9818 39.499 13.5215 39.499C13.0749 39.499 12.7012 39.6152 12.4004 39.8477C12.1042 40.0801 11.9561 40.3535 11.9561 40.668H10.6982C10.6982 40.0254 10.9671 39.499 11.5049 39.0889C12.0426 38.6787 12.7148 38.4736 13.5215 38.4736C14.3874 38.4736 15.0618 38.6605 15.5449 39.0342C16.028 39.4033 16.2695 39.932 16.2695 40.6201C16.2695 40.9528 16.1693 41.2581 15.9688 41.5361C15.7682 41.8141 15.4834 42.0352 15.1143 42.1992C15.9756 42.4909 16.4062 43.0651 16.4062 43.9219C16.4062 44.6009 16.1442 45.1387 15.6201 45.5352C15.096 45.9316 14.3965 46.1299 13.5215 46.1299C12.6693 46.1299 11.9652 45.9225 11.4092 45.5078C10.8577 45.0885 10.582 44.5234 10.582 43.8125H11.8398C11.8398 44.1725 11.9993 44.4824 12.3184 44.7422C12.6419 44.9974 13.043 45.125 13.5215 45.125C14.0046 45.125 14.3942 45.0133 14.6904 44.79C14.9867 44.5667 15.1348 44.2773 15.1348 43.9219C15.1348 43.5072 15.0094 43.2109 14.7588 43.0332C14.5127 42.8509 14.1276 42.7598 13.6035 42.7598H12.3389V41.6934H13.7129C14.5742 41.6706 15.0049 41.3151 15.0049 40.627ZM21.2939 39.0273C22.2236 39.0273 22.9665 39.3395 23.5225 39.9639C24.083 40.5837 24.3633 41.4017 24.3633 42.418V42.5342C24.3633 43.2314 24.2288 43.8558 23.96 44.4072C23.6911 44.9541 23.3037 45.3802 22.7979 45.6855C22.2965 45.9863 21.7178 46.1367 21.0615 46.1367C20.068 46.1367 19.2682 45.8063 18.6621 45.1455C18.056 44.4801 17.7529 43.5892 17.7529 42.4727V41.8574C17.7529 40.3034 18.04 39.0684 18.6143 38.1523C19.193 37.2363 20.0452 36.6781 21.1709 36.4775C21.8089 36.3636 22.2396 36.2246 22.4629 36.0605C22.6862 35.8965 22.7979 35.6709 22.7979 35.3838H23.8369C23.8369 35.9535 23.707 36.3978 23.4473 36.7168C23.1921 37.0358 22.7819 37.2614 22.2168 37.3936L21.2734 37.6055C20.5215 37.7832 19.9564 38.084 19.5781 38.5078C19.2044 38.9271 18.9606 39.4876 18.8467 40.1895C19.5166 39.4147 20.3324 39.0273 21.2939 39.0273ZM21.0479 40.0664C20.4281 40.0664 19.9359 40.276 19.5713 40.6953C19.2067 41.11 19.0244 41.6865 19.0244 42.4248V42.5342C19.0244 43.3271 19.2067 43.9561 19.5713 44.4209C19.9404 44.8812 20.4372 45.1113 21.0615 45.1113C21.6904 45.1113 22.1872 44.8789 22.5518 44.4141C22.9163 43.9492 23.0986 43.2702 23.0986 42.377C23.0986 41.6797 22.9141 41.1214 22.5449 40.7021C22.1803 40.2783 21.6813 40.0664 21.0479 40.0664ZM31.9102 42.3838C31.9102 43.5094 31.6527 44.4163 31.1377 45.1045C30.6227 45.7926 29.9255 46.1367 29.0459 46.1367C28.1481 46.1367 27.4417 45.8519 26.9268 45.2822V48.8438H25.6621V38.6035H26.8174L26.8789 39.4238C27.3939 38.7858 28.1094 38.4668 29.0254 38.4668C29.9141 38.4668 30.6159 38.8018 31.1309 39.4717C31.6504 40.1416 31.9102 41.0736 31.9102 42.2676V42.3838ZM30.6455 42.2402C30.6455 41.4062 30.4678 40.7477 30.1123 40.2646C29.7568 39.7816 29.2692 39.54 28.6494 39.54C27.8838 39.54 27.3096 39.8796 26.9268 40.5586V44.0928C27.305 44.7673 27.8838 45.1045 28.6631 45.1045C29.2692 45.1045 29.75 44.8652 30.1055 44.3867C30.4655 43.9036 30.6455 43.1882 30.6455 42.2402ZM38.0898 46C38.0169 45.8542 37.9577 45.5944 37.9121 45.2207C37.3242 45.8314 36.6224 46.1367 35.8066 46.1367C35.0775 46.1367 34.4782 45.9316 34.0088 45.5215C33.5439 45.1068 33.3115 44.5827 33.3115 43.9492C33.3115 43.179 33.6032 42.582 34.1865 42.1582C34.7744 41.7298 35.5993 41.5156 36.6611 41.5156H37.8916V40.9346C37.8916 40.4925 37.7594 40.1416 37.4951 39.8818C37.2308 39.6175 36.8411 39.4854 36.3262 39.4854C35.875 39.4854 35.4967 39.5993 35.1914 39.8271C34.8861 40.055 34.7334 40.3307 34.7334 40.6543H33.4619C33.4619 40.2852 33.5918 39.9297 33.8516 39.5879C34.1159 39.2415 34.4714 38.9681 34.918 38.7676C35.3691 38.5671 35.8636 38.4668 36.4014 38.4668C37.2536 38.4668 37.9212 38.681 38.4043 39.1094C38.8874 39.5332 39.138 40.1188 39.1562 40.8662V44.2705C39.1562 44.9495 39.2428 45.4896 39.416 45.8906V46H38.0898ZM35.9912 45.0361C36.3877 45.0361 36.7637 44.9336 37.1191 44.7285C37.4746 44.5234 37.7321 44.2568 37.8916 43.9287V42.4111H36.9004C35.3509 42.4111 34.5762 42.8646 34.5762 43.7715C34.5762 44.168 34.7083 44.4779 34.9727 44.7012C35.237 44.9245 35.5765 45.0361 35.9912 45.0361ZM47.1816 46H45.917V42.8418H42.5195V46H41.248V38.6035H42.5195V41.8096H45.917V38.6035H47.1816V46ZM55.2617 46H53.9971V42.8418H50.5996V46H49.3281V38.6035H50.5996V41.8096H53.9971V38.6035H55.2617V46ZM56.9639 42.2334C56.9639 41.5088 57.1051 40.8571 57.3877 40.2783C57.6748 39.6995 58.0713 39.2529 58.5771 38.9385C59.0876 38.624 59.6686 38.4668 60.3203 38.4668C61.3275 38.4668 62.141 38.8154 62.7607 39.5127C63.3851 40.21 63.6973 41.1374 63.6973 42.2949V42.3838C63.6973 43.1038 63.5583 43.751 63.2803 44.3252C63.0068 44.8949 62.6126 45.3392 62.0977 45.6582C61.5872 45.9772 60.9993 46.1367 60.334 46.1367C59.3314 46.1367 58.5179 45.7881 57.8936 45.0908C57.2738 44.3936 56.9639 43.4707 56.9639 42.3223V42.2334ZM58.2354 42.3838C58.2354 43.2041 58.4245 43.8626 58.8027 44.3594C59.1855 44.8561 59.696 45.1045 60.334 45.1045C60.9766 45.1045 61.487 44.8538 61.8652 44.3525C62.2435 43.8467 62.4326 43.1403 62.4326 42.2334C62.4326 41.4222 62.2389 40.766 61.8516 40.2646C61.4688 39.7588 60.9583 39.5059 60.3203 39.5059C59.696 39.5059 59.1924 39.7542 58.8096 40.251C58.4268 40.7477 58.2354 41.4587 58.2354 42.3838ZM68.3525 46.1367C67.3499 46.1367 66.5342 45.8086 65.9053 45.1523C65.2764 44.4915 64.9619 43.6097 64.9619 42.5068V42.2744C64.9619 41.5407 65.1009 40.8867 65.3789 40.3125C65.6615 39.7337 66.0534 39.2826 66.5547 38.959C67.0605 38.6309 67.6074 38.4668 68.1953 38.4668C69.1569 38.4668 69.9043 38.7835 70.4375 39.417C70.9707 40.0505 71.2373 40.9574 71.2373 42.1377V42.6641H66.2266C66.2448 43.3932 66.4567 43.9834 66.8623 44.4346C67.2725 44.8812 67.792 45.1045 68.4209 45.1045C68.8675 45.1045 69.2458 45.0133 69.5557 44.8311C69.8656 44.6488 70.1367 44.4072 70.3691 44.1064L71.1416 44.708C70.5218 45.6605 69.5921 46.1367 68.3525 46.1367ZM68.1953 39.5059C67.6849 39.5059 67.2565 39.6927 66.9102 40.0664C66.5638 40.4355 66.3496 40.9551 66.2676 41.625H69.9727V41.5293C69.9362 40.8867 69.763 40.39 69.4531 40.0391C69.1432 39.6836 68.724 39.5059 68.1953 39.5059Z" fill="black"/>
<circle cx="49" cy="6" r="6" fill="#FF4343"/>
<path d="M49.6216 8H48.7944V4.00439L47.5742 4.42139V3.7207L49.5156 3.00635H49.6216V8Z" fill="white"/>
<defs>
<linearGradient id="paint0_linear_111_15629" x1="11.5854" y1="-10.3548" x2="51.8288" y2="-5.10721" gradientUnits="userSpaceOnUse">
<stop stop-color="#F64D4D"/>
<stop offset="1" stop-color="#4D5EF6"/>
</linearGradient>
<clipPath id="clip0_111_15629">
<rect width="27.0833" height="26" fill="white" transform="translate(22.4583 2)"/>
</clipPath>
</defs>
</svg>
