<svg width="40" height="47" viewBox="0 0 40 47" fill="none" xmlns="http://www.w3.org/2000/svg">
<path d="M27.1998 7.28C27.1998 11.3006 23.9404 14.56 19.9198 14.56C15.8992 14.56 12.6398 11.3006 12.6398 7.28C12.6398 3.25937 15.8992 0 19.9198 0C23.9404 0 27.1998 3.25937 27.1998 7.28ZM14.387 7.28C14.387 10.3357 16.8641 12.8128 19.9198 12.8128C22.9755 12.8128 25.4526 10.3357 25.4526 7.28C25.4526 4.22432 22.9755 1.7472 19.9198 1.7472C16.8641 1.7472 14.387 4.22432 14.387 7.28Z" fill="black"/>
<path d="M30.84 26C30.84 24.566 30.5575 23.146 30.0088 21.8211C29.46 20.4962 28.6556 19.2924 27.6416 18.2784C26.6276 17.2644 25.4238 16.46 24.0989 15.9112C22.774 15.3625 21.354 15.08 19.92 15.08C18.486 15.08 17.066 15.3625 15.7411 15.9112C14.4162 16.46 13.2124 17.2644 12.1984 18.2784C11.1844 19.2924 10.38 20.4962 9.83123 21.8211C9.28245 23.146 9 24.566 9 26H10.744C10.744 24.795 10.9813 23.6018 11.4424 22.4885C11.9036 21.3752 12.5795 20.3636 13.4316 19.5116C14.2836 18.6595 15.2952 17.9836 16.4085 17.5224C17.5218 17.0613 18.715 16.8239 19.92 16.8239C21.125 16.8239 22.3182 17.0613 23.4315 17.5224C24.5448 17.9836 25.5564 18.6595 26.4084 19.5116C27.2605 20.3636 27.9364 21.3752 28.3976 22.4885C28.8587 23.6018 29.096 24.795 29.096 26H30.84Z" fill="black"/>
<path d="M1.15527 44V34.0469H4.40918C5.48926 34.0469 6.30046 34.2702 6.84277 34.7168C7.38965 35.1634 7.66309 35.8242 7.66309 36.6992C7.66309 37.1641 7.53092 37.5765 7.2666 37.9365C7.00228 38.292 6.64225 38.5677 6.18652 38.7637C6.72428 38.9141 7.14811 39.2012 7.45801 39.625C7.77246 40.0443 7.92969 40.5456 7.92969 41.1289C7.92969 42.0221 7.6403 42.724 7.06152 43.2344C6.48275 43.7448 5.66471 44 4.60742 44H1.15527ZM2.46777 39.3447V42.9268H4.63477C5.24544 42.9268 5.72624 42.7695 6.07715 42.4551C6.43262 42.1361 6.61035 41.6986 6.61035 41.1426C6.61035 39.944 5.95866 39.3447 4.65527 39.3447H2.46777ZM2.46777 38.292H4.4502C5.02441 38.292 5.48242 38.1484 5.82422 37.8613C6.17057 37.5742 6.34375 37.1846 6.34375 36.6924C6.34375 36.1455 6.18424 35.749 5.86523 35.5029C5.54622 35.2523 5.06087 35.127 4.40918 35.127H2.46777V38.292ZM9.34473 40.2334C9.34473 39.5088 9.486 38.8571 9.76855 38.2783C10.0557 37.6995 10.4521 37.2529 10.958 36.9385C11.4684 36.624 12.0495 36.4668 12.7012 36.4668C13.7083 36.4668 14.5218 36.8154 15.1416 37.5127C15.766 38.21 16.0781 39.1374 16.0781 40.2949V40.3838C16.0781 41.1038 15.9391 41.751 15.6611 42.3252C15.3877 42.8949 14.9935 43.3392 14.4785 43.6582C13.9681 43.9772 13.3802 44.1367 12.7148 44.1367C11.7122 44.1367 10.8988 43.7881 10.2744 43.0908C9.65462 42.3936 9.34473 41.4707 9.34473 40.3223V40.2334ZM10.6162 40.3838C10.6162 41.2041 10.8053 41.8626 11.1836 42.3594C11.5664 42.8561 12.0768 43.1045 12.7148 43.1045C13.3574 43.1045 13.8678 42.8538 14.2461 42.3525C14.6243 41.8467 14.8135 41.1403 14.8135 40.2334C14.8135 39.4222 14.6198 38.766 14.2324 38.2646C13.8496 37.7588 13.3392 37.5059 12.7012 37.5059C12.0768 37.5059 11.5732 37.7542 11.1904 38.251C10.8076 38.7477 10.6162 39.4587 10.6162 40.3838ZM22.4492 36.6035H23.7139V44H22.4492V38.6064L19.0381 44H17.7734V36.6035H19.0381V42.0039L22.4492 36.6035ZM22.791 33.9102C22.791 34.4616 22.6019 34.9059 22.2236 35.2432C21.8499 35.5758 21.3577 35.7422 20.7471 35.7422C20.1364 35.7422 19.6419 35.5736 19.2637 35.2363C18.8854 34.8991 18.6963 34.457 18.6963 33.9102H19.7285C19.7285 34.2292 19.8151 34.4798 19.9883 34.6621C20.1615 34.8398 20.4144 34.9287 20.7471 34.9287C21.0661 34.9287 21.3145 34.8398 21.4922 34.6621C21.6745 34.4844 21.7656 34.2337 21.7656 33.9102H22.791ZM31.2402 37.6289H28.7588V44H27.4941V37.6289H25.0605V36.6035H31.2402V37.6289ZM37.2559 36.6035H38.5205V44H37.2559V38.6064L33.8447 44H32.5801V36.6035H33.8447V42.0039L37.2559 36.6035Z" fill="black"/>
</svg>
